<svg width="171" height="21" viewBox="0 0 171 21" fill="none" xmlns="http://www.w3.org/2000/svg">
<path d="M162.548 20.5096C167.244 20.5096 170.167 17.115 170.167 12.7355C170.167 11.0844 169.893 9.59353 167.982 9.14561C168.447 7.89666 169.788 4.28386 169.788 3.12646C169.788 2.1072 169.163 1.25304 168.049 1.25304C166.273 1.25304 164.682 6.29869 164.183 7.50187C163.798 6.40986 161.991 0.892578 160.398 0.892578C159.161 0.892578 158.58 1.76962 158.58 2.87308C158.58 4.22583 159.941 7.73155 160.434 9.08022C160.184 8.99194 159.913 8.91511 159.638 8.91511C158.706 8.91511 157.715 10.03 157.715 10.9308C157.715 11.2716 157.91 11.7506 158.033 12.0685C156.565 12.4519 156 13.3943 156 14.8157C155.996 17.5817 158.719 20.5096 162.548 20.5096ZM166.573 5.03095C166.733 4.55932 167.413 2.56738 168.049 2.56738C168.392 2.56738 168.483 2.90822 168.483 3.18041C168.483 3.91196 166.948 7.95469 166.608 8.85054L165.255 8.62085L166.573 5.03095ZM159.83 2.74393V2.74311C159.83 2.28702 160.408 0.992298 161.673 4.54788L163.05 8.39117C162.429 8.34131 161.948 8.27592 161.642 8.44512C161.208 7.34166 159.83 3.85883 159.83 2.74393ZM159.738 10.2409L159.739 10.2417C160.905 10.2417 162.41 13.8659 162.41 14.3564C162.41 14.5517 162.215 14.7928 161.988 14.7928C161.156 14.7928 158.927 11.8462 158.927 11.0493C158.93 10.7542 159.432 10.2409 159.738 10.2409ZM158.398 13.2407C158.852 13.2407 160.559 15.5514 160.559 16.0418C160.559 16.2298 160.253 16.3598 160.094 16.3598C159.453 16.3598 159.203 15.7655 158.061 14.3907C156.878 15.5285 158.877 17.7199 160.382 17.7199C161.42 17.7199 162.097 16.793 161.894 16.1105C162.042 16.1105 162.224 16.1219 162.36 16.0876C162.404 17.1256 162.723 18.3631 164.02 18.4514C164.02 18.4171 164.1 18.1792 164.1 18.1678C164.1 17.5008 163.678 16.9188 163.678 16.2404C163.678 15.1558 164.542 14.1063 165.418 13.4932C165.736 13.2635 166.123 13.1213 166.496 12.9914C166.883 12.8499 167.293 12.6848 167.586 12.4012C167.542 11.9721 167.359 11.5928 166.913 11.5928C165.811 11.5928 162.113 11.7465 162.113 10.0717C162.113 9.81504 162.118 9.56983 162.807 9.56983C164.093 9.56983 167.357 9.87634 168.312 10.6847C169.032 11.3018 169.279 15.0217 167.078 17.3782L167.075 17.379C165.917 18.6051 164.436 19.241 162.708 19.241C160.344 19.241 158.477 17.9921 157.578 15.8579C156.897 14.1953 157.729 13.2407 158.398 13.2407ZM163.149 12.5508C163.537 12.6701 163.934 12.7053 164.333 12.7813C164.038 12.9881 163.776 13.2415 163.524 13.5128C163.413 13.1875 163.277 12.8696 163.149 12.5508Z" fill="#505F79"/>
<path d="M97.4042 4.6989L99 3.18571V2.85449H93.4717L89.5317 12.5746L85.0492 2.85449H79.2525V3.18571L81.1167 5.41007C81.2983 5.57444 81.3933 5.8148 81.3692 6.05681V14.7981C81.4267 15.1128 81.3233 15.4366 81.1 15.6654L79 18.188V18.515H84.9542V18.1838L82.8542 15.6654C82.6267 15.4358 82.5192 15.1178 82.565 14.7981V7.23713L87.7917 18.5192H88.3992L92.8933 7.23713V16.2246C92.8933 16.4617 92.8933 16.5104 92.7367 16.6657L91.12 18.216V18.5481H98.9633V18.2169L97.405 16.7045C97.2683 16.6021 97.1975 16.4303 97.2267 16.2634V5.13997C97.1975 4.9723 97.2675 4.8005 97.4042 4.6989Z" fill="#505F79"/>
<path d="M52.6444 3.86914C49.1556 3.86914 46.2886 6.64258 46.2886 10.0925V19.8333C46.2886 20.2054 46.5995 20.5098 46.9794 20.5098H50.5718C50.9518 20.5098 51.2627 20.2054 51.2627 19.8333V10.363C51.2627 9.61895 51.8844 9.01014 52.6444 9.01014C53.4043 9.01014 54.0261 9.61895 54.0261 10.363V19.8333C54.0261 20.2054 54.3369 20.5098 54.7169 20.5098H58.3093C58.6893 20.5098 59.0001 20.2054 59.0001 19.8333V10.0925C59.0001 6.6764 56.1677 3.86914 52.6444 3.86914Z" fill="#505F79"/>
<path d="M41.487 0.892578C40.1054 0.892578 39 1.97472 39 3.32741C39 4.68009 40.1054 5.76224 41.487 5.76224C42.8687 5.76224 43.9741 4.68009 43.9741 3.32741C43.9741 1.97472 42.8687 0.892578 41.487 0.892578Z" fill="#505F79"/>
<path d="M43.2832 7.04785H39.6908C39.3109 7.04785 39 7.35225 39 7.7243V19.8327C39 20.2048 39.3109 20.5092 39.6908 20.5092H43.2832C43.6632 20.5092 43.9741 20.2048 43.9741 19.8327V7.7243C43.9741 7.35225 43.6632 7.04785 43.2832 7.04785Z" fill="#505F79"/>
<path d="M136.985 8.21083C136.985 7.09277 136.619 6.04246 135.921 5.12768C136.187 4.24678 136.253 3.12871 136.187 1.84124C136.153 1.29915 135.721 0.892578 135.189 0.892578C134.889 0.892578 132.36 0.926459 130.896 2.24781C129.632 2.01064 128.301 2.01064 127.004 2.24781C125.573 0.926459 123.044 0.892578 122.712 0.892578C122.179 0.892578 121.747 1.29915 121.713 1.84124C121.614 3.12871 121.713 4.24678 121.98 5.12768C121.281 6.07634 120.915 7.12665 120.915 8.21083C120.915 10.5825 122.712 12.717 125.44 13.7334C125.34 13.9367 125.274 14.1739 125.207 14.411C122.312 14.1061 120.948 11.4295 120.882 11.3279C120.649 10.8197 120.05 10.6164 119.551 10.8874C119.052 11.1246 118.852 11.7344 119.118 12.2426C119.185 12.4121 121.015 16.0373 125.041 16.4439V19.4931C125.041 20.0691 125.473 20.5096 126.039 20.5096H131.861C132.427 20.5096 132.86 20.0691 132.86 19.4931V15.4613C132.86 14.8515 132.726 14.2755 132.494 13.7673C135.189 12.717 136.985 10.6164 136.985 8.21083Z" fill="#505F79"/>
<path d="M19.7587 1.27945C19.4253 0.888413 18.8587 0.790654 18.4253 1.08393L16.492 2.38738C15.592 1.44238 14.3253 0.920999 12.9587 0.920999C10.2587 0.920999 8.02532 3.07169 8.02532 5.74377C8.02532 6.1348 8.05865 6.49325 8.15865 6.8517C5.82532 6.36291 4.42532 4.70101 3.89198 1.70307C3.82532 1.31203 3.52532 1.01876 3.12532 0.920999C2.75865 0.82324 2.35865 0.986171 2.12532 1.27945C2.05865 1.34462 -3.44135 8.83946 4.52532 15.1938C3.75865 16.7905 1.45865 18.1591 0.558651 18.6153C0.125318 18.8109 -0.0746825 19.2671 0.0253175 19.7233C0.125318 20.1795 0.525318 20.4728 0.991984 20.4728H2.72532C12.8587 20.4728 17.4587 15.5522 17.5587 4.53808L19.6587 2.5829C20.0587 2.25704 20.092 1.67048 19.7587 1.27945Z" fill="#505F79"/>
</svg>
